<?xml version="1.0" encoding="UTF-8"?>
<svg id="Layer_1" data-name="Layer 1" xmlns="http://www.w3.org/2000/svg" width="530.7374" height="753" viewBox="0 0 530.7374 753">
  <path d="M106.5416,543.4392v108.5503c0,19.3597-5.3985,34.1742-16.1925,44.4465-10.7984,10.2752-24.3116,15.4129-40.5395,15.4129-11.4675,0-21.0722-1.9366-28.814-5.8067-7.7433-3.8702-14.7408-9.6061-20.9956-17.1991l22.7833-23.8989c7.4441,9.5295,16.1542,14.2957,26.1317,14.2957,6.7013,0,12.0615-2.1959,16.082-6.5908,4.0205-4.3889,6.0307-11.0564,6.0307-19.9905v-77.5035H15.1889l7.817-31.7159h83.5357Z" style="fill: #303130; stroke-width: 0px;"/>
  <path d="M210.563,584.8143c17.2728,0,30.8965,5.957,40.874,17.8682,9.9746,11.9141,14.9648,26.8023,14.9648,44.6705,0,17.7208-5.2865,32.6473-15.858,44.7825-10.573,12.1381-24.0493,18.2042-40.426,18.2042-16.8292,0-29.5612-6.4788-38.1947-19.4334l-1.3397,16.082h-32.3865v-165.0583h34.1742v62.5387c9.2289-13.102,21.9609-19.6544,38.1917-19.6544ZM180.5227,671.812c5.4339,5.733,12.4697,8.5981,21.1061,8.5981s15.7813-2.9387,21.4436-8.8221c5.6564-5.8804,8.4861-13.8831,8.4861-24.0109,0-10.4226-2.6793-18.5019-8.041-24.235-5.3587-5.7301-12.2103-8.5981-20.5475-8.5981-8.6379,0-15.8963,2.9034-21.7767,8.7101-5.8848,5.8067-8.8221,13.8477-8.8221,24.123,0,10.4226,2.7147,18.5019,8.1515,24.235Z" style="fill: #303130; stroke-width: 0px;"/>
  <path d="M395.0517,706.9884h-30.1522l-2.6808-14.5168c-7.8936,11.3187-19.5807,16.9751-35.0673,16.9751-12.3592,0-22.2999-3.3131-29.8177-9.9392-7.5193-6.6232-11.2789-15.8933-11.2789-27.8074,0-11.4661,4.6911-20.6242,14.0717-27.4743,9.3807-6.8472,22.1849-10.2752,38.4172-10.2752,7.593,0,14.9648.9727,22.1127,2.9063v-3.1274c0-6.7028-2.1223-11.9111-6.3668-15.6369-4.243-3.7198-10.2399-5.5827-17.9802-5.5827-11.021,0-21.4407,3.428-31.2693,10.2752l-12.284-24.7921c13.9951-8.7867,29.405-13.1786,46.2342-13.1786,16.5285,0,29.6305,4.3536,39.3103,13.0666,9.6769,8.7101,14.5198,20.5859,14.5198,35.6244v40.426c0,11.6164.7428,22.6374,2.2313,33.0571ZM336.0869,683.9825c6.8472,0,12.6539-1.8599,17.4216-5.5827,4.7633-3.7198,7.1479-8.9341,7.1479-15.6339v-4.6925c-5.6623-1.4856-11.5427-2.2313-17.6457-2.2313-16.082,0-24.1215,5.0639-24.1215,15.1859,0,3.8761,1.4502,7.0005,4.3536,9.3821,2.9034,2.3846,7.1832,3.5725,12.8441,3.5725Z" style="fill: #303130; stroke-width: 0px;"/>
  <path d="M493.8839,588.3868h36.8535l-51.8184,118.6016-19.2093,46.0116h-35.5139l25.9092-60.0834-48.2444-104.5298h38.6412l27.0248,67.0072,26.3572-67.0072Z" style="fill: #303130; stroke-width: 0px;"/>
  <g>
    <path d="M373.2458,0h-190.818c-29.3035,0-54.9467,20.1334-61.424,48.712-.3153,1.3912-.6091,2.8216-.8795,4.292h144.1386s-26.3755,37.5526-25.357,108.1531c0,0,.4363,70.9165-6.6085,95.1339-.7226,2.484-1.3764,4.9843-2.0166,7.4908-5.3865,21.086-35.7547,107.8635-161.8084,53.4313,0,0,60.4725,58.5162,125.9681,49.2698,0,0,72.9902-10.3275,88.4701-105.8798,1.16-7.1604,1.8456-14.3886,2.1722-21.6351,1.1743-26.0482,6.3733-125.4408,18.6344-159.8194.3481-.976.691-1.9504,1.0267-2.9308,2.9976-8.7531,21.2022-56.3668,68.5019-76.218Z" style="fill: #f2b629; stroke-width: 0px;"/>
    <path d="M373.2458,14.1889s-43.1141,19.9739-60.5414,84.9449c-4.242,15.8147-6.2546,32.1444-6.2546,48.5182v34.3467s6.4903,160.0939-97.3544,192.5454c0,0-56.2492,16.2257-98.4361-15.144,0,0,12.9806,62.7395,84.3738,63.2804,0,0,116.8253-1.0817,147.6542-153.0628,0,0,10.3684-40.0605,12.2153-108.4605,0,0-.8573-100.5293,18.3431-145.3112" style="fill: #269c43; stroke-width: 0px;"/>
    <path d="M47.3789,314.5088s-6.9833,178.88,171.6409,167.1087c.9431-.0621,1.8887-.1171,2.8327-.1617,12.7334-.6019,143.3555-11.6457,128.9476-211.2973,0,0-17.8483,141.1639-129.9411,164.3805,0,0-97.2192,25.4606-122.6395-84.3335l-50.8406-35.6966Z" style="fill: #1a1a17; stroke-width: 0px;"/>
    <path d="M20.8769,296.1197s104.4594-35.2216,197.9909-4.6302c0,0-9.1377,15.6447-14.3227,18.7912,0,0-64.6794-31.4684-183.6682-14.1609Z" style="fill: #2d9a45; stroke-width: 0px;"/>
    <path d="M8.978,302.61s116.1185-14.2883,179.2114,20.4396c0,0-12.4988,7.5251-25.5436,9.7685,0,0-35.22-34.5349-153.6678-30.2081Z" style="fill: #2d9a45; stroke-width: 0px;"/>
  </g>
</svg>